<mxfile host="app.diagrams.net" modified="2023-12-18T17:28:45.334Z" agent="Mozilla/5.0 (Windows NT 10.0; Win64; x64) AppleWebKit/537.36 (KHTML, like Gecko) Chrome/119.0.0.0 Safari/537.36" etag="FzB3Npn6qohZSijBqQAT" version="22.1.11" type="device">
  <diagram name="Страница — 1" id="VEveGzfzLPNnsSKiKBnb">
    <mxGraphModel dx="819" dy="451" grid="0" gridSize="10" guides="1" tooltips="1" connect="1" arrows="1" fold="1" page="1" pageScale="1" pageWidth="827" pageHeight="1169" math="0" shadow="0">
      <root>
        <mxCell id="0" />
        <mxCell id="1" parent="0" />
        <mxCell id="khdtYhaCzw99SLC-Dacm-15" value="&lt;font size=&quot;1&quot; face=&quot;Verdana&quot;&gt;&lt;b style=&quot;font-size: 14px;&quot;&gt;Heap &lt;/b&gt;&lt;span style=&quot;font-size: 14px;&quot;&gt;(dynamic objects)&lt;/span&gt;&lt;/font&gt;" style="rounded=0;whiteSpace=wrap;html=1;strokeColor=none;" vertex="1" parent="1">
          <mxGeometry x="200" y="360" width="320" height="40" as="geometry" />
        </mxCell>
        <mxCell id="khdtYhaCzw99SLC-Dacm-20" value="&lt;font style=&quot;font-size: 12px;&quot; face=&quot;Verdana&quot;&gt;free space&lt;/font&gt;" style="rounded=0;whiteSpace=wrap;html=1;strokeColor=none;fillStyle=auto;" vertex="1" parent="1">
          <mxGeometry x="200" y="320" width="320" height="40" as="geometry" />
        </mxCell>
        <mxCell id="khdtYhaCzw99SLC-Dacm-12" value="&lt;font size=&quot;1&quot; face=&quot;Verdana&quot;&gt;&lt;b style=&quot;font-size: 14px;&quot;&gt;Memory Mapping&amp;nbsp;&lt;/b&gt;&lt;span style=&quot;font-size: 14px;&quot;&gt;&lt;b&gt;Segment &lt;/b&gt;(DLL, etc.)&lt;/span&gt;&lt;/font&gt;" style="rounded=0;whiteSpace=wrap;html=1;strokeColor=none;" vertex="1" parent="1">
          <mxGeometry x="200" y="280" width="320" height="40" as="geometry" />
        </mxCell>
        <mxCell id="khdtYhaCzw99SLC-Dacm-1" value="&lt;font size=&quot;1&quot; face=&quot;Verdana&quot;&gt;&lt;b style=&quot;font-size: 14px;&quot;&gt;Kernel Segment &lt;/b&gt;&lt;span style=&quot;font-size: 14px;&quot;&gt;(protected)&lt;/span&gt;&lt;/font&gt;" style="rounded=0;whiteSpace=wrap;html=1;" vertex="1" parent="1">
          <mxGeometry x="200" y="120" width="320" height="40" as="geometry" />
        </mxCell>
        <mxCell id="khdtYhaCzw99SLC-Dacm-2" value="&lt;font face=&quot;Verdana&quot;&gt;offset&lt;/font&gt;" style="rounded=0;whiteSpace=wrap;html=1;fillColor=#CCCCCC;" vertex="1" parent="1">
          <mxGeometry x="200" y="160" width="320" height="20" as="geometry" />
        </mxCell>
        <mxCell id="khdtYhaCzw99SLC-Dacm-3" value="&lt;font size=&quot;1&quot; face=&quot;Verdana&quot;&gt;&lt;b style=&quot;font-size: 14px;&quot;&gt;Stack&amp;nbsp;&lt;/b&gt;&lt;/font&gt;&lt;font style=&quot;font-size: 14px;&quot;&gt;(automatic objects)&lt;/font&gt;" style="rounded=0;whiteSpace=wrap;html=1;strokeColor=none;" vertex="1" parent="1">
          <mxGeometry x="200" y="180" width="320" height="40" as="geometry" />
        </mxCell>
        <mxCell id="khdtYhaCzw99SLC-Dacm-4" value="" style="shape=curlyBracket;whiteSpace=wrap;html=1;rounded=0;flipH=1;labelPosition=right;verticalLabelPosition=middle;align=left;verticalAlign=middle;direction=west;" vertex="1" parent="1">
          <mxGeometry x="170" y="120" width="20" height="40" as="geometry" />
        </mxCell>
        <mxCell id="khdtYhaCzw99SLC-Dacm-5" value="" style="shape=curlyBracket;whiteSpace=wrap;html=1;rounded=0;flipH=1;labelPosition=right;verticalLabelPosition=middle;align=left;verticalAlign=middle;direction=west;" vertex="1" parent="1">
          <mxGeometry x="170" y="160" width="20" height="360" as="geometry" />
        </mxCell>
        <mxCell id="khdtYhaCzw99SLC-Dacm-6" value="0xC0000000" style="text;html=1;strokeColor=none;fillColor=none;align=center;verticalAlign=middle;whiteSpace=wrap;rounded=0;" vertex="1" parent="1">
          <mxGeometry x="520" y="150" width="80" height="20" as="geometry" />
        </mxCell>
        <mxCell id="khdtYhaCzw99SLC-Dacm-8" value="&lt;font face=&quot;Verdana&quot;&gt;offset&lt;/font&gt;" style="rounded=0;whiteSpace=wrap;html=1;fillColor=#CCCCCC;" vertex="1" parent="1">
          <mxGeometry x="200" y="260" width="320" height="20" as="geometry" />
        </mxCell>
        <mxCell id="khdtYhaCzw99SLC-Dacm-10" value="" style="shape=curlyBracket;whiteSpace=wrap;html=1;rounded=0;flipH=1;labelPosition=right;verticalLabelPosition=middle;align=left;verticalAlign=middle;direction=east;" vertex="1" parent="1">
          <mxGeometry x="530" y="180" width="20" height="80" as="geometry" />
        </mxCell>
        <mxCell id="khdtYhaCzw99SLC-Dacm-11" value="&lt;font face=&quot;Verdana&quot;&gt;Max size (e.g. 8 MB)&lt;/font&gt;" style="text;html=1;strokeColor=none;fillColor=none;align=center;verticalAlign=middle;whiteSpace=wrap;rounded=0;" vertex="1" parent="1">
          <mxGeometry x="560" y="210" width="130" height="20" as="geometry" />
        </mxCell>
        <mxCell id="khdtYhaCzw99SLC-Dacm-18" value="&lt;font style=&quot;font-size: 12px;&quot; face=&quot;Verdana&quot;&gt;free space&lt;/font&gt;" style="rounded=0;whiteSpace=wrap;html=1;strokeColor=none;" vertex="1" parent="1">
          <mxGeometry x="200" y="220" width="320" height="40" as="geometry" />
        </mxCell>
        <mxCell id="khdtYhaCzw99SLC-Dacm-19" value="&lt;font face=&quot;Verdana&quot;&gt;offset&lt;/font&gt;" style="rounded=0;whiteSpace=wrap;html=1;fillColor=#CCCCCC;" vertex="1" parent="1">
          <mxGeometry x="200" y="400" width="320" height="20" as="geometry" />
        </mxCell>
        <mxCell id="khdtYhaCzw99SLC-Dacm-22" value="" style="endArrow=none;dashed=1;html=1;rounded=0;dashPattern=1 1;entryX=1;entryY=1;entryDx=0;entryDy=0;" edge="1" parent="1" target="khdtYhaCzw99SLC-Dacm-3">
          <mxGeometry width="50" height="50" relative="1" as="geometry">
            <mxPoint x="200" y="220" as="sourcePoint" />
            <mxPoint x="350" y="220" as="targetPoint" />
          </mxGeometry>
        </mxCell>
        <mxCell id="khdtYhaCzw99SLC-Dacm-29" value="" style="endArrow=none;html=1;rounded=0;entryX=1;entryY=0;entryDx=0;entryDy=0;" edge="1" parent="1" target="khdtYhaCzw99SLC-Dacm-3">
          <mxGeometry width="50" height="50" relative="1" as="geometry">
            <mxPoint x="200" y="180" as="sourcePoint" />
            <mxPoint x="290" y="190" as="targetPoint" />
          </mxGeometry>
        </mxCell>
        <mxCell id="khdtYhaCzw99SLC-Dacm-30" value="" style="endArrow=none;html=1;rounded=0;exitX=0;exitY=0;exitDx=0;exitDy=0;entryX=1;entryY=1;entryDx=0;entryDy=0;" edge="1" parent="1" source="khdtYhaCzw99SLC-Dacm-8" target="khdtYhaCzw99SLC-Dacm-18">
          <mxGeometry width="50" height="50" relative="1" as="geometry">
            <mxPoint x="200" y="280" as="sourcePoint" />
            <mxPoint x="250" y="230" as="targetPoint" />
          </mxGeometry>
        </mxCell>
        <mxCell id="khdtYhaCzw99SLC-Dacm-32" value="" style="endArrow=blockThin;html=1;rounded=0;endWidth=6.8533333333333335;endFill=1;exitX=1;exitY=0;exitDx=0;exitDy=0;strokeWidth=2;" edge="1" parent="1" source="khdtYhaCzw99SLC-Dacm-3">
          <mxGeometry width="50" height="50" relative="1" as="geometry">
            <mxPoint x="620" y="280" as="sourcePoint" />
            <mxPoint x="520" y="260" as="targetPoint" />
          </mxGeometry>
        </mxCell>
        <mxCell id="khdtYhaCzw99SLC-Dacm-33" value="" style="endArrow=none;dashed=1;html=1;dashPattern=1 1;strokeWidth=1;rounded=0;exitX=0;exitY=1;exitDx=0;exitDy=0;entryX=1;entryY=1;entryDx=0;entryDy=0;" edge="1" parent="1" source="khdtYhaCzw99SLC-Dacm-12" target="khdtYhaCzw99SLC-Dacm-12">
          <mxGeometry width="50" height="50" relative="1" as="geometry">
            <mxPoint x="270" y="380" as="sourcePoint" />
            <mxPoint x="320" y="330" as="targetPoint" />
          </mxGeometry>
        </mxCell>
        <mxCell id="khdtYhaCzw99SLC-Dacm-34" value="" style="endArrow=none;dashed=1;html=1;dashPattern=1 1;strokeWidth=1;rounded=0;exitX=0;exitY=1;exitDx=0;exitDy=0;entryX=1;entryY=1;entryDx=0;entryDy=0;" edge="1" parent="1" source="khdtYhaCzw99SLC-Dacm-20" target="khdtYhaCzw99SLC-Dacm-20">
          <mxGeometry width="50" height="50" relative="1" as="geometry">
            <mxPoint x="210" y="330" as="sourcePoint" />
            <mxPoint x="530" y="330" as="targetPoint" />
          </mxGeometry>
        </mxCell>
        <mxCell id="khdtYhaCzw99SLC-Dacm-35" value="" style="endArrow=blockThin;html=1;rounded=0;endWidth=6.8533333333333335;endFill=1;exitX=1;exitY=0;exitDx=0;exitDy=0;entryX=1;entryY=0.5;entryDx=0;entryDy=0;strokeWidth=2;" edge="1" parent="1" source="khdtYhaCzw99SLC-Dacm-12" target="khdtYhaCzw99SLC-Dacm-20">
          <mxGeometry width="50" height="50" relative="1" as="geometry">
            <mxPoint x="530" y="190" as="sourcePoint" />
            <mxPoint x="530" y="270" as="targetPoint" />
          </mxGeometry>
        </mxCell>
        <mxCell id="khdtYhaCzw99SLC-Dacm-38" value="" style="endArrow=blockThin;html=1;rounded=0;endWidth=6.8533333333333335;endFill=1;exitX=1;exitY=0;exitDx=0;exitDy=0;entryX=1;entryY=0.5;entryDx=0;entryDy=0;strokeWidth=2;" edge="1" parent="1" source="khdtYhaCzw99SLC-Dacm-19" target="khdtYhaCzw99SLC-Dacm-20">
          <mxGeometry width="50" height="50" relative="1" as="geometry">
            <mxPoint x="220" y="300" as="sourcePoint" />
            <mxPoint x="220" y="360" as="targetPoint" />
          </mxGeometry>
        </mxCell>
        <mxCell id="khdtYhaCzw99SLC-Dacm-39" value="&lt;font face=&quot;Verdana&quot;&gt;1 GB (Linux, x32)&lt;/font&gt;" style="text;html=1;strokeColor=none;fillColor=none;align=center;verticalAlign=middle;whiteSpace=wrap;rounded=0;" vertex="1" parent="1">
          <mxGeometry x="50" y="130" width="110" height="20" as="geometry" />
        </mxCell>
        <mxCell id="khdtYhaCzw99SLC-Dacm-42" value="&lt;font size=&quot;1&quot; face=&quot;Verdana&quot;&gt;&lt;b style=&quot;font-size: 14px;&quot;&gt;Data Segment&amp;nbsp;&lt;/b&gt;&lt;span style=&quot;font-size: 14px;&quot;&gt;(static objects)&lt;/span&gt;&lt;/font&gt;" style="rounded=0;whiteSpace=wrap;html=1;strokeColor=default;" vertex="1" parent="1">
          <mxGeometry x="200" y="420" width="320" height="40" as="geometry" />
        </mxCell>
        <mxCell id="khdtYhaCzw99SLC-Dacm-43" value="&lt;font size=&quot;1&quot; face=&quot;Verdana&quot;&gt;&lt;b style=&quot;font-size: 14px;&quot;&gt;Text Segment&amp;nbsp;&lt;/b&gt;&lt;span style=&quot;font-size: 14px;&quot;&gt;(binary image)&lt;/span&gt;&lt;/font&gt;" style="rounded=0;whiteSpace=wrap;html=1;strokeColor=default;" vertex="1" parent="1">
          <mxGeometry x="200" y="460" width="320" height="40" as="geometry" />
        </mxCell>
        <mxCell id="khdtYhaCzw99SLC-Dacm-44" value="0x08048000" style="text;html=1;strokeColor=none;fillColor=none;align=center;verticalAlign=middle;whiteSpace=wrap;rounded=0;" vertex="1" parent="1">
          <mxGeometry x="520" y="490" width="80" height="20" as="geometry" />
        </mxCell>
        <mxCell id="khdtYhaCzw99SLC-Dacm-45" value="&lt;font face=&quot;Verdana&quot;&gt;offset&lt;/font&gt;" style="rounded=0;whiteSpace=wrap;html=1;fillColor=#CCCCCC;" vertex="1" parent="1">
          <mxGeometry x="200" y="500" width="320" height="20" as="geometry" />
        </mxCell>
        <mxCell id="khdtYhaCzw99SLC-Dacm-46" value="0x00000000" style="text;html=1;strokeColor=none;fillColor=none;align=center;verticalAlign=middle;whiteSpace=wrap;rounded=0;" vertex="1" parent="1">
          <mxGeometry x="520" y="510" width="80" height="20" as="geometry" />
        </mxCell>
        <mxCell id="khdtYhaCzw99SLC-Dacm-47" value="" style="shape=curlyBracket;whiteSpace=wrap;html=1;rounded=0;flipH=1;labelPosition=right;verticalLabelPosition=middle;align=left;verticalAlign=middle;direction=east;" vertex="1" parent="1">
          <mxGeometry x="530" y="340" width="20" height="60" as="geometry" />
        </mxCell>
        <mxCell id="khdtYhaCzw99SLC-Dacm-48" value="&lt;font face=&quot;Verdana&quot;&gt;Max size&lt;/font&gt;" style="text;html=1;strokeColor=none;fillColor=none;align=center;verticalAlign=middle;whiteSpace=wrap;rounded=0;" vertex="1" parent="1">
          <mxGeometry x="560" y="360" width="60" height="20" as="geometry" />
        </mxCell>
        <mxCell id="khdtYhaCzw99SLC-Dacm-49" value="&lt;font face=&quot;Verdana&quot;&gt;3 GB (Linux, x32)&lt;/font&gt;" style="text;html=1;strokeColor=none;fillColor=none;align=center;verticalAlign=middle;whiteSpace=wrap;rounded=0;" vertex="1" parent="1">
          <mxGeometry x="50" y="330" width="110" height="20" as="geometry" />
        </mxCell>
        <mxCell id="khdtYhaCzw99SLC-Dacm-50" value="" style="shape=curlyBracket;whiteSpace=wrap;html=1;rounded=0;flipH=1;labelPosition=right;verticalLabelPosition=middle;align=left;verticalAlign=middle;direction=east;" vertex="1" parent="1">
          <mxGeometry x="530" y="280" width="20" height="60" as="geometry" />
        </mxCell>
        <mxCell id="khdtYhaCzw99SLC-Dacm-51" value="&lt;font face=&quot;Verdana&quot;&gt;Max size&lt;/font&gt;" style="text;html=1;strokeColor=none;fillColor=none;align=center;verticalAlign=middle;whiteSpace=wrap;rounded=0;" vertex="1" parent="1">
          <mxGeometry x="560" y="300" width="60" height="20" as="geometry" />
        </mxCell>
        <mxCell id="khdtYhaCzw99SLC-Dacm-52" value="&lt;font size=&quot;1&quot; style=&quot;&quot; face=&quot;Verdana&quot;&gt;&lt;b style=&quot;&quot;&gt;Possible access errors: Page Fault / Segmentation Fault&lt;/b&gt;&lt;/font&gt;" style="text;html=1;strokeColor=none;fillColor=none;align=center;verticalAlign=middle;whiteSpace=wrap;rounded=0;" vertex="1" parent="1">
          <mxGeometry x="180" y="80" width="360" height="40" as="geometry" />
        </mxCell>
        <mxCell id="khdtYhaCzw99SLC-Dacm-53" value="" style="endArrow=none;html=1;rounded=0;entryX=0;entryY=0;entryDx=0;entryDy=0;" edge="1" parent="1" target="khdtYhaCzw99SLC-Dacm-3">
          <mxGeometry width="50" height="50" relative="1" as="geometry">
            <mxPoint x="200" y="260" as="sourcePoint" />
            <mxPoint x="150" y="230" as="targetPoint" />
          </mxGeometry>
        </mxCell>
        <mxCell id="khdtYhaCzw99SLC-Dacm-54" value="" style="endArrow=none;html=1;rounded=0;entryX=0;entryY=0;entryDx=0;entryDy=0;exitX=0;exitY=0;exitDx=0;exitDy=0;" edge="1" parent="1" source="khdtYhaCzw99SLC-Dacm-19" target="khdtYhaCzw99SLC-Dacm-12">
          <mxGeometry width="50" height="50" relative="1" as="geometry">
            <mxPoint x="120" y="440" as="sourcePoint" />
            <mxPoint x="170" y="390" as="targetPoint" />
          </mxGeometry>
        </mxCell>
      </root>
    </mxGraphModel>
  </diagram>
</mxfile>
